<svg id="visual" viewBox="0 0 900 600" width="900" height="600" xmlns="http://www.w3.org/2000/svg" xmlns:xlink="http://www.w3.org/1999/xlink" version="1.1"><rect x="0" y="0" width="900" height="600" fill="#000000"></rect><path d="M0 205L129 248L257 250L386 209L514 171L643 175L771 166L900 235L900 0L771 0L643 0L514 0L386 0L257 0L129 0L0 0Z" fill="#f5730a"></path><path d="M0 172L129 151L257 203L386 145L514 204L643 217L771 202L900 164L900 0L771 0L643 0L514 0L386 0L257 0L129 0L0 0Z" fill="#e3630a"></path><path d="M0 136L129 171L257 175L386 130L514 121L643 179L771 184L900 136L900 0L771 0L643 0L514 0L386 0L257 0L129 0L0 0Z" fill="#d15308"></path><path d="M0 98L129 126L257 92L386 95L514 115L643 106L771 131L900 111L900 0L771 0L643 0L514 0L386 0L257 0L129 0L0 0Z" fill="#be4407"></path><path d="M0 84L129 111L257 87L386 96L514 95L643 91L771 111L900 68L900 0L771 0L643 0L514 0L386 0L257 0L129 0L0 0Z" fill="#ac3505"></path><path d="M0 43L129 62L257 50L386 58L514 43L643 86L771 45L900 72L900 0L771 0L643 0L514 0L386 0L257 0L129 0L0 0Z" fill="#992503"></path><path d="M0 31L129 50L257 30L386 18L514 32L643 53L771 26L900 33L900 0L771 0L643 0L514 0L386 0L257 0L129 0L0 0Z" fill="#871400"></path></svg>