<svg id="visual" viewBox="0 0 900 600" width="900" height="600" xmlns="http://www.w3.org/2000/svg" xmlns:xlink="http://www.w3.org/1999/xlink" version="1.1"><rect x="0" y="0" width="900" height="600" fill="#001220"></rect><defs><linearGradient id="grad1_0" x1="33.3%" y1="100%" x2="100%" y2="0%"><stop offset="20%" stop-color="#fbae3c" stop-opacity="1"></stop><stop offset="80%" stop-color="#fbae3c" stop-opacity="1"></stop></linearGradient></defs><defs><linearGradient id="grad1_1" x1="33.3%" y1="100%" x2="100%" y2="0%"><stop offset="20%" stop-color="#fbae3c" stop-opacity="1"></stop><stop offset="80%" stop-color="#e1685e" stop-opacity="1"></stop></linearGradient></defs><defs><linearGradient id="grad1_2" x1="33.3%" y1="100%" x2="100%" y2="0%"><stop offset="20%" stop-color="#96446e" stop-opacity="1"></stop><stop offset="80%" stop-color="#e1685e" stop-opacity="1"></stop></linearGradient></defs><defs><linearGradient id="grad1_3" x1="33.3%" y1="100%" x2="100%" y2="0%"><stop offset="20%" stop-color="#96446e" stop-opacity="1"></stop><stop offset="80%" stop-color="#3d3056" stop-opacity="1"></stop></linearGradient></defs><defs><linearGradient id="grad1_4" x1="33.3%" y1="100%" x2="100%" y2="0%"><stop offset="20%" stop-color="#001220" stop-opacity="1"></stop><stop offset="80%" stop-color="#3d3056" stop-opacity="1"></stop></linearGradient></defs><defs><linearGradient id="grad2_0" x1="0%" y1="100%" x2="66.7%" y2="0%"><stop offset="20%" stop-color="#fbae3c" stop-opacity="1"></stop><stop offset="80%" stop-color="#fbae3c" stop-opacity="1"></stop></linearGradient></defs><defs><linearGradient id="grad2_1" x1="0%" y1="100%" x2="66.7%" y2="0%"><stop offset="20%" stop-color="#e1685e" stop-opacity="1"></stop><stop offset="80%" stop-color="#fbae3c" stop-opacity="1"></stop></linearGradient></defs><defs><linearGradient id="grad2_2" x1="0%" y1="100%" x2="66.7%" y2="0%"><stop offset="20%" stop-color="#e1685e" stop-opacity="1"></stop><stop offset="80%" stop-color="#96446e" stop-opacity="1"></stop></linearGradient></defs><defs><linearGradient id="grad2_3" x1="0%" y1="100%" x2="66.7%" y2="0%"><stop offset="20%" stop-color="#3d3056" stop-opacity="1"></stop><stop offset="80%" stop-color="#96446e" stop-opacity="1"></stop></linearGradient></defs><defs><linearGradient id="grad2_4" x1="0%" y1="100%" x2="66.7%" y2="0%"><stop offset="20%" stop-color="#3d3056" stop-opacity="1"></stop><stop offset="80%" stop-color="#001220" stop-opacity="1"></stop></linearGradient></defs><g transform="translate(900, 600)"><path d="M-297.5 0C-293.4 -19 -289.3 -38 -281.5 -56C-273.7 -74 -262.1 -91 -246.7 -102.2C-231.2 -113.3 -211.8 -118.6 -209.5 -140C-207.2 -161.4 -221.9 -198.8 -210.3 -210.3C-198.7 -221.8 -160.8 -207.4 -137.8 -206.2C-114.8 -205 -106.7 -217.2 -95.7 -231C-84.6 -244.8 -70.5 -260.3 -54 -271.7C-37.6 -283 -18.8 -290.3 0 -297.5L0 0Z" fill="#18223c"></path><path d="M-238 0C-234.7 -15.2 -231.4 -30.4 -225.2 -44.8C-218.9 -59.2 -209.7 -72.8 -197.3 -81.7C-185 -90.7 -169.5 -94.9 -167.6 -112C-165.8 -129.1 -177.6 -159.1 -168.3 -168.3C-159 -177.5 -128.6 -165.9 -110.2 -165C-91.8 -164 -85.4 -173.7 -76.5 -184.8C-67.7 -195.8 -56.4 -208.2 -43.2 -217.3C-30.1 -226.4 -15 -232.2 0 -238L0 0Z" fill="#683a67"></path><path d="M-178.5 0C-176 -11.4 -173.6 -22.8 -168.9 -33.6C-164.2 -44.4 -157.3 -54.6 -148 -61.3C-138.7 -68 -127.1 -71.2 -125.7 -84C-124.3 -96.8 -133.2 -119.3 -126.2 -126.2C-119.2 -133.1 -96.5 -124.4 -82.7 -123.7C-68.9 -123 -64 -130.3 -57.4 -138.6C-50.8 -146.9 -42.3 -156.2 -32.4 -163C-22.6 -169.8 -11.3 -174.2 0 -178.5L0 0Z" fill="#c0526a"></path><path d="M-119 0C-117.4 -7.6 -115.7 -15.2 -112.6 -22.4C-109.5 -29.6 -104.9 -36.4 -98.7 -40.9C-92.5 -45.3 -84.7 -47.5 -83.8 -56C-82.9 -64.6 -88.8 -79.5 -84.1 -84.1C-79.5 -88.7 -64.3 -83 -55.1 -82.5C-45.9 -82 -42.7 -86.9 -38.3 -92.4C-33.8 -97.9 -28.2 -104.1 -21.6 -108.7C-15 -113.2 -7.5 -116.1 0 -119L0 0Z" fill="#f6884d"></path><path d="M-59.5 0C-58.7 -3.8 -57.9 -7.6 -56.3 -11.2C-54.7 -14.8 -52.4 -18.2 -49.3 -20.4C-46.2 -22.7 -42.4 -23.7 -41.9 -28C-41.4 -32.3 -44.4 -39.8 -42.1 -42.1C-39.7 -44.4 -32.2 -41.5 -27.6 -41.2C-23 -41 -21.3 -43.4 -19.1 -46.2C-16.9 -49 -14.1 -52.1 -10.8 -54.3C-7.5 -56.6 -3.8 -58.1 0 -59.5L0 0Z" fill="#fbae3c"></path></g><g transform="translate(0, 0)"><path d="M297.5 0C270.3 14.6 243.2 29.3 240.3 47.8C237.4 66.3 258.8 88.7 261.5 108.3C264.1 127.9 248 144.6 228.7 152.8C209.3 160.9 186.6 160.5 178.2 178.2C169.8 195.9 175.8 231.8 165.3 247.3C154.8 262.8 127.8 257.9 106.8 257.8C85.7 257.6 70.5 262.3 53.6 269.7C36.8 277.1 18.4 287.3 0 297.5L0 0Z" fill="#18223c"></path><path d="M238 0C216.3 11.7 194.5 23.4 192.2 38.2C189.9 53.1 207 71 209.2 86.6C211.3 102.3 198.4 115.7 182.9 122.2C167.4 128.7 149.3 128.4 142.6 142.6C135.8 156.7 140.6 185.5 132.2 197.9C123.8 210.3 102.3 206.3 85.4 206.2C68.6 206.1 56.4 209.8 42.9 215.8C29.5 221.7 14.7 229.8 0 238L0 0Z" fill="#683a67"></path><path d="M178.5 0C162.2 8.8 145.9 17.6 144.2 28.7C142.4 39.8 155.3 53.2 156.9 65C158.5 76.7 148.8 86.8 137.2 91.7C125.6 96.6 111.9 96.3 106.9 106.9C101.9 117.6 105.5 139.1 99.2 148.4C92.9 157.7 76.7 154.7 64.1 154.7C51.4 154.6 42.3 157.4 32.2 161.8C22.1 166.3 11 172.4 0 178.5L0 0Z" fill="#c0526a"></path><path d="M119 0C108.1 5.9 97.3 11.7 96.1 19.1C95 26.5 103.5 35.5 104.6 43.3C105.6 51.2 99.2 57.9 91.5 61.1C83.7 64.4 74.6 64.2 71.3 71.3C67.9 78.4 70.3 92.7 66.1 98.9C61.9 105.1 51.1 103.2 42.7 103.1C34.3 103.1 28.2 104.9 21.5 107.9C14.7 110.9 7.4 114.9 0 119L0 0Z" fill="#f6884d"></path><path d="M59.5 0C54.1 2.9 48.6 5.9 48.1 9.6C47.5 13.3 51.8 17.7 52.3 21.7C52.8 25.6 49.6 28.9 45.7 30.6C41.9 32.2 37.3 32.1 35.6 35.6C34 39.2 35.2 46.4 33.1 49.5C31 52.6 25.6 51.6 21.4 51.6C17.1 51.5 14.1 52.5 10.7 53.9C7.4 55.4 3.7 57.5 0 59.5L0 0Z" fill="#fbae3c"></path></g></svg>