<svg id="visual" viewBox="0 0 900 600" width="900" height="600" xmlns="http://www.w3.org/2000/svg" xmlns:xlink="http://www.w3.org/1999/xlink" version="1.1"><rect x="0" y="0" width="900" height="600" fill="#ffffff"></rect><path d="M0 385L21.5 392.2C43 399.3 86 413.7 128.8 410.2C171.7 406.7 214.3 385.3 257.2 379.5C300 373.7 343 383.3 385.8 391.3C428.7 399.3 471.3 405.7 514.2 405.7C557 405.7 600 399.3 642.8 394C685.7 388.7 728.3 384.3 771.2 392.2C814 400 857 420 878.5 430L900 440L900 601L878.5 601C857 601 814 601 771.2 601C728.3 601 685.7 601 642.8 601C600 601 557 601 514.2 601C471.3 601 428.7 601 385.8 601C343 601 300 601 257.2 601C214.3 601 171.7 601 128.8 601C86 601 43 601 21.5 601L0 601Z" fill="#9568e3"></path><path d="M0 453L21.5 451.8C43 450.7 86 448.3 128.8 440.5C171.7 432.7 214.3 419.3 257.2 422C300 424.7 343 443.3 385.8 446.3C428.7 449.3 471.3 436.7 514.2 426.3C557 416 600 408 642.8 404.8C685.7 401.7 728.3 403.3 771.2 415C814 426.7 857 448.3 878.5 459.2L900 470L900 601L878.5 601C857 601 814 601 771.2 601C728.3 601 685.7 601 642.8 601C600 601 557 601 514.2 601C471.3 601 428.7 601 385.8 601C343 601 300 601 257.2 601C214.3 601 171.7 601 128.8 601C86 601 43 601 21.5 601L0 601Z" fill="#805fdc"></path><path d="M0 452L21.5 451.2C43 450.3 86 448.7 128.8 447.7C171.7 446.7 214.3 446.3 257.2 452.7C300 459 343 472 385.8 473C428.7 474 471.3 463 514.2 459.3C557 455.7 600 459.3 642.8 460.2C685.7 461 728.3 459 771.2 460.5C814 462 857 467 878.5 469.5L900 472L900 601L878.5 601C857 601 814 601 771.2 601C728.3 601 685.7 601 642.8 601C600 601 557 601 514.2 601C471.3 601 428.7 601 385.8 601C343 601 300 601 257.2 601C214.3 601 171.7 601 128.8 601C86 601 43 601 21.5 601L0 601Z" fill="#6856d5"></path><path d="M0 495L21.5 500C43 505 86 515 128.8 522.7C171.7 530.3 214.3 535.7 257.2 535.3C300 535 343 529 385.8 526C428.7 523 471.3 523 514.2 522.5C557 522 600 521 642.8 518.7C685.7 516.3 728.3 512.7 771.2 512C814 511.3 857 513.7 878.5 514.8L900 516L900 601L878.5 601C857 601 814 601 771.2 601C728.3 601 685.7 601 642.8 601C600 601 557 601 514.2 601C471.3 601 428.7 601 385.8 601C343 601 300 601 257.2 601C214.3 601 171.7 601 128.8 601C86 601 43 601 21.5 601L0 601Z" fill="#4c4ece"></path><path d="M0 545L21.5 545.8C43 546.7 86 548.3 128.8 547.5C171.7 546.7 214.3 543.3 257.2 542.8C300 542.3 343 544.7 385.8 545.7C428.7 546.7 471.3 546.3 514.2 545.3C557 544.3 600 542.7 642.8 546.8C685.7 551 728.3 561 771.2 565.8C814 570.7 857 570.3 878.5 570.2L900 570L900 601L878.5 601C857 601 814 601 771.2 601C728.3 601 685.7 601 642.8 601C600 601 557 601 514.2 601C471.3 601 428.7 601 385.8 601C343 601 300 601 257.2 601C214.3 601 171.7 601 128.8 601C86 601 43 601 21.5 601L0 601Z" fill="#2446c7"></path></svg>