<svg id="visual" viewBox="0 0 900 600" width="900" height="600" xmlns="http://www.w3.org/2000/svg" xmlns:xlink="http://www.w3.org/1999/xlink" version="1.1"><rect x="0" y="0" width="900" height="600" fill="#000000"></rect><path d="M0 213L21.5 205.8C43 198.7 86 184.3 128.8 187.8C171.7 191.3 214.3 212.7 257.2 218.5C300 224.3 343 214.7 385.8 206.7C428.7 198.7 471.3 192.3 514.2 192.3C557 192.3 600 198.7 642.8 204C685.7 209.3 728.3 213.7 771.2 205.8C814 198 857 178 878.5 168L900 158L900 0L878.5 0C857 0 814 0 771.2 0C728.3 0 685.7 0 642.8 0C600 0 557 0 514.2 0C471.3 0 428.7 0 385.8 0C343 0 300 0 257.2 0C214.3 0 171.7 0 128.8 0C86 0 43 0 21.5 0L0 0Z" fill="#9568e3"></path><path d="M0 145L21.5 146.2C43 147.3 86 149.7 128.8 157.5C171.7 165.3 214.3 178.7 257.2 176C300 173.3 343 154.7 385.8 151.7C428.7 148.7 471.3 161.3 514.2 171.7C557 182 600 190 642.8 193.2C685.7 196.3 728.3 194.7 771.2 183C814 171.3 857 149.7 878.5 138.8L900 128L900 0L878.5 0C857 0 814 0 771.2 0C728.3 0 685.7 0 642.8 0C600 0 557 0 514.2 0C471.3 0 428.7 0 385.8 0C343 0 300 0 257.2 0C214.3 0 171.7 0 128.8 0C86 0 43 0 21.5 0L0 0Z" fill="#805fdc"></path><path d="M0 146L21.5 146.8C43 147.7 86 149.3 128.8 150.3C171.7 151.3 214.3 151.7 257.2 145.3C300 139 343 126 385.8 125C428.7 124 471.3 135 514.2 138.7C557 142.3 600 138.7 642.8 137.8C685.7 137 728.3 139 771.2 137.5C814 136 857 131 878.5 128.5L900 126L900 0L878.5 0C857 0 814 0 771.2 0C728.3 0 685.7 0 642.8 0C600 0 557 0 514.2 0C471.3 0 428.7 0 385.8 0C343 0 300 0 257.2 0C214.3 0 171.7 0 128.8 0C86 0 43 0 21.5 0L0 0Z" fill="#6856d5"></path><path d="M0 103L21.5 98C43 93 86 83 128.8 75.3C171.7 67.7 214.3 62.3 257.2 62.7C300 63 343 69 385.8 72C428.7 75 471.3 75 514.2 75.5C557 76 600 77 642.8 79.3C685.7 81.7 728.3 85.3 771.2 86C814 86.7 857 84.3 878.5 83.2L900 82L900 0L878.5 0C857 0 814 0 771.2 0C728.3 0 685.7 0 642.8 0C600 0 557 0 514.2 0C471.3 0 428.7 0 385.8 0C343 0 300 0 257.2 0C214.3 0 171.7 0 128.8 0C86 0 43 0 21.5 0L0 0Z" fill="#4c4ece"></path><path d="M0 53L21.5 52.2C43 51.3 86 49.7 128.8 50.5C171.7 51.3 214.3 54.7 257.2 55.2C300 55.7 343 53.3 385.8 52.3C428.7 51.3 471.3 51.7 514.2 52.7C557 53.7 600 55.3 642.8 51.2C685.7 47 728.3 37 771.2 32.2C814 27.3 857 27.7 878.5 27.8L900 28L900 0L878.5 0C857 0 814 0 771.2 0C728.3 0 685.7 0 642.8 0C600 0 557 0 514.2 0C471.3 0 428.7 0 385.8 0C343 0 300 0 257.2 0C214.3 0 171.7 0 128.8 0C86 0 43 0 21.5 0L0 0Z" fill="#2446c7"></path></svg>