<svg id="visual" viewBox="0 0 900 600" width="900" height="600" xmlns="http://www.w3.org/2000/svg" xmlns:xlink="http://www.w3.org/1999/xlink" version="1.1"><path d="M0 193L13.7 175C27.3 157 54.7 121 82 113C109.3 105 136.7 125 163.8 136C191 147 218 149 245.2 150C272.3 151 299.7 151 327 141C354.3 131 381.7 111 409 122C436.3 133 463.7 175 491 184C518.3 193 545.7 169 573 159C600.3 149 627.7 153 654.8 169C682 185 709 213 736.2 219C763.3 225 790.7 209 818 186C845.3 163 872.7 133 886.3 118L900 103L900 0L886.3 0C872.7 0 845.3 0 818 0C790.7 0 763.3 0 736.2 0C709 0 682 0 654.8 0C627.7 0 600.3 0 573 0C545.7 0 518.3 0 491 0C463.7 0 436.3 0 409 0C381.7 0 354.3 0 327 0C299.7 0 272.3 0 245.2 0C218 0 191 0 163.8 0C136.7 0 109.3 0 82 0C54.7 0 27.3 0 13.7 0L0 0Z" fill="#0066ff"></path><path d="M0 235L13.7 221C27.3 207 54.7 179 82 176C109.3 173 136.7 195 163.8 207C191 219 218 221 245.2 215C272.3 209 299.7 195 327 184C354.3 173 381.7 165 409 179C436.3 193 463.7 229 491 239C518.3 249 545.7 233 573 224C600.3 215 627.7 213 654.8 226C682 239 709 267 736.2 275C763.3 283 790.7 271 818 250C845.3 229 872.7 199 886.3 184L900 169L900 101L886.3 116C872.7 131 845.3 161 818 184C790.7 207 763.3 223 736.2 217C709 211 682 183 654.8 167C627.7 151 600.3 147 573 157C545.7 167 518.3 191 491 182C463.7 173 436.3 131 409 120C381.7 109 354.3 129 327 139C299.7 149 272.3 149 245.2 148C218 147 191 145 163.8 134C136.7 123 109.3 103 82 111C54.7 119 27.3 155 13.7 173L0 191Z" fill="#0064d8"></path><path d="M0 265L13.7 255C27.3 245 54.7 225 82 227C109.3 229 136.7 253 163.8 263C191 273 218 269 245.2 261C272.3 253 299.7 241 327 235C354.3 229 381.7 229 409 241C436.3 253 463.7 277 491 286C518.3 295 545.7 289 573 285C600.3 281 627.7 279 654.8 288C682 297 709 317 736.2 326C763.3 335 790.7 333 818 316C845.3 299 872.7 267 886.3 251L900 235L900 167L886.3 182C872.7 197 845.3 227 818 248C790.7 269 763.3 281 736.2 273C709 265 682 237 654.8 224C627.7 211 600.3 213 573 222C545.7 231 518.3 247 491 237C463.7 227 436.3 191 409 177C381.7 163 354.3 171 327 182C299.7 193 272.3 207 245.2 213C218 219 191 217 163.8 205C136.7 193 109.3 171 82 174C54.7 177 27.3 205 13.7 219L0 233Z" fill="#005dae"></path><path d="M0 457L13.7 441C27.3 425 54.7 393 82 382C109.3 371 136.7 381 163.8 392C191 403 218 415 245.2 412C272.3 409 299.7 391 327 380C354.3 369 381.7 365 409 376C436.3 387 463.7 413 491 433C518.3 453 545.7 467 573 455C600.3 443 627.7 405 654.8 399C682 393 709 419 736.2 427C763.3 435 790.7 425 818 423C845.3 421 872.7 427 886.3 430L900 433L900 233L886.3 249C872.7 265 845.3 297 818 314C790.7 331 763.3 333 736.2 324C709 315 682 295 654.8 286C627.7 277 600.3 279 573 283C545.7 287 518.3 293 491 284C463.7 275 436.3 251 409 239C381.7 227 354.3 227 327 233C299.7 239 272.3 251 245.2 259C218 267 191 271 163.8 261C136.7 251 109.3 227 82 225C54.7 223 27.3 243 13.7 253L0 263Z" fill="#005282"></path><path d="M0 505L13.7 487C27.3 469 54.7 433 82 419C109.3 405 136.7 413 163.8 422C191 431 218 441 245.2 440C272.3 439 299.7 427 327 420C354.3 413 381.7 411 409 419C436.3 427 463.7 445 491 463C518.3 481 545.7 499 573 494C600.3 489 627.7 461 654.8 459C682 457 709 481 736.2 488C763.3 495 790.7 485 818 483C845.3 481 872.7 487 886.3 490L900 493L900 431L886.3 428C872.7 425 845.3 419 818 421C790.7 423 763.3 433 736.2 425C709 417 682 391 654.8 397C627.7 403 600.3 441 573 453C545.7 465 518.3 451 491 431C463.7 411 436.3 385 409 374C381.7 363 354.3 367 327 378C299.7 389 272.3 407 245.2 410C218 413 191 401 163.8 390C136.7 379 109.3 369 82 380C54.7 391 27.3 423 13.7 439L0 455Z" fill="#00435b"></path><path d="M0 547L13.7 535C27.3 523 54.7 499 82 487C109.3 475 136.7 475 163.8 480C191 485 218 495 245.2 502C272.3 509 299.7 513 327 512C354.3 511 381.7 505 409 508C436.3 511 463.7 523 491 532C518.3 541 545.7 547 573 535C600.3 523 627.7 493 654.8 493C682 493 709 523 736.2 532C763.3 541 790.7 529 818 524C845.3 519 872.7 521 886.3 522L900 523L900 491L886.3 488C872.7 485 845.3 479 818 481C790.7 483 763.3 493 736.2 486C709 479 682 455 654.8 457C627.7 459 600.3 487 573 492C545.7 497 518.3 479 491 461C463.7 443 436.3 425 409 417C381.7 409 354.3 411 327 418C299.7 425 272.3 437 245.2 438C218 439 191 429 163.8 420C136.7 411 109.3 403 82 417C54.7 431 27.3 467 13.7 485L0 503Z" fill="#003135"></path><path d="M0 601L13.7 601C27.3 601 54.7 601 82 601C109.3 601 136.7 601 163.8 601C191 601 218 601 245.2 601C272.3 601 299.7 601 327 601C354.3 601 381.7 601 409 601C436.3 601 463.7 601 491 601C518.3 601 545.7 601 573 601C600.3 601 627.7 601 654.8 601C682 601 709 601 736.2 601C763.3 601 790.7 601 818 601C845.3 601 872.7 601 886.3 601L900 601L900 521L886.3 520C872.7 519 845.3 517 818 522C790.7 527 763.3 539 736.2 530C709 521 682 491 654.8 491C627.7 491 600.3 521 573 533C545.7 545 518.3 539 491 530C463.7 521 436.3 509 409 506C381.7 503 354.3 509 327 510C299.7 511 272.3 507 245.2 500C218 493 191 483 163.8 478C136.7 473 109.3 473 82 485C54.7 497 27.3 521 13.7 533L0 545Z" fill="#051e18"></path></svg>